<?xml version="1.0" encoding="utf-8"?>
<!-- Generator: Adobe Illustrator 23.0.4, SVG Export Plug-In . SVG Version: 6.00 Build 0)  -->
<svg version="1.1" id="Layer_1" xmlns="http://www.w3.org/2000/svg" xmlns:xlink="http://www.w3.org/1999/xlink" x="0px" y="0px"
	 viewBox="0 0 342.8 85.7" style="enable-background:new 0 0 342.8 85.7;" xml:space="preserve">
<style type="text/css">
	.st0{fill:#B9DCC9;}
	.st1{fill:#72C4A7;}
	.st2{fill:#7BC2A5;}
	.st3{fill:#00944C;}
	.st4{fill:#007D45;}
	.st5{fill:#006238;}
	.st6{fill:#04402D;}
	.st7{fill:none;}
	.st8{fill:#139C57;}
	.st9{fill:#0B824E;}
	.st10{fill:#333333;}
</style>
<path class="st0" d="M35.6,36.8C25.6,19.6,6.2,17.5,3,20c-4,3-5.8,19.4,6.4,36c5.3,7.1,15.3,8.7,22.5,3.4C39,54.1,40,44.5,35.6,36.8
	z M32.8,55.7c-0.4,0.3-0.7,0.7-1.1,1c0,0,0,0-0.1,0c0,0,0,0,0,0c-6.2,4.5-14.8,3.2-19.4-3c-3.3-4.5-5.4-9-6.7-13.2c0,0,0,0,0,0
	c-0.1-0.2-0.1-0.3-0.1-0.5c-0.1-0.3-0.2-0.6-0.2-0.9c0-0.1-0.1-0.3-0.1-0.4C3.6,32.8,3.9,27.9,5.1,25c0,0,0-0.1,0-0.1
	c0.1-0.2,0.2-0.4,0.2-0.5c0-0.1,0.1-0.1,0.1-0.2c0.1-0.2,0.2-0.4,0.3-0.6c0,0,0,0,0,0c0.1-0.2,0.2-0.3,0.4-0.5c0,0,0,0,0,0
	c0.2-0.2,0.3-0.4,0.5-0.5c1.8-1.3,9.2-1,16.6,3.2c0.1,0,0.1,0.1,0.2,0.1c0.2,0.1,0.5,0.3,0.7,0.4c0.2,0.1,0.3,0.2,0.5,0.3
	c0.1,0.1,0.3,0.2,0.4,0.3c0.3,0.2,0.5,0.3,0.8,0.5c0.1,0.1,0.1,0.1,0.2,0.1c0.3,0.2,0.7,0.5,1,0.7c0,0,0,0,0,0
	c2.8,2.2,5.5,5.1,7.6,8.8C38.4,43.4,37.9,51,32.8,55.7z"/>
<path class="st1" d="M19.3,24C19.3,24,19.3,24,19.3,24C19.3,24,19.3,24,19.3,24c0.2,0.1,0.5,0.2,0.7,0.3c0.2,0.1,0.4,0.2,0.6,0.3
	c0.1,0,0.1,0,0.2,0.1c0.9,0.4,1.7,0.8,2.6,1.3c-7.4-4.2-14.9-4.5-16.6-3.2c-0.2,0.1-0.3,0.3-0.5,0.5c0.1-0.1,0.3-0.3,0.4-0.4
	C8.1,21.7,13.4,21.6,19.3,24z"/>
<path class="st1" d="M5.1,25C3.9,27.9,3.6,32.8,5,38.6C3.6,32.8,4,27.9,5.1,25z"/>
<path class="st2" d="M5.7,40.8c-0.1-0.1-0.1-0.2-0.2-0.3c1.2,4.1,3.4,8.6,6.7,13.2c4.6,6.2,13.2,7.5,19.4,3c0,0,0,0,0,0
	c-0.1,0-0.1-0.1-0.2-0.1C21.8,55.1,12.3,49.7,5.7,40.8z"/>
<path class="st3" d="M31.4,56.5c-5.5-2.4-10.5-6.3-14.2-11.4c-5-6.9-7.2-15.1-6.7-23.1c2.4,0,5.5,0.6,8.8,1.9c0,0,0,0,0,0
	c-5.9-2.3-11.2-2.3-12.7-1.2c-0.1,0.1-0.3,0.2-0.4,0.4c0,0,0,0,0,0c-0.1,0.1-0.3,0.3-0.4,0.5c0,0,0,0,0,0c-0.1,0.2-0.2,0.4-0.3,0.6
	c0,0.1-0.1,0.1-0.1,0.2c-0.1,0.2-0.2,0.4-0.2,0.5c0,0,0,0.1,0,0.1C4,27.9,3.6,32.8,5,38.6c0,0.1,0.1,0.3,0.1,0.4
	c0.1,0.3,0.2,0.6,0.2,0.9c0,0.2,0.1,0.3,0.1,0.5c0,0,0,0,0,0c0,0.1,0.1,0.2,0.2,0.3C12.3,49.7,21.8,55.1,31.4,56.5z"/>
<path class="st4" d="M25.6,50c-6-8.2-8.1-17.8-6.3-26c-3.3-1.3-6.4-1.9-8.8-1.9c-0.5,8,1.7,16.2,6.7,23.1c3.7,5.1,8.7,9,14.2,11.4
	c0.1,0,0.1,0.1,0.2,0.1c0,0,0,0,0.1,0c0.4-0.3,0.8-0.6,1.1-1c-0.3,0.3-0.7,0.6-1,0.9C29.5,54.7,27.4,52.5,25.6,50z"/>
<path class="st5" d="M34.8,37.3c-2.1-3.7-4.8-6.6-7.6-8.8c0,0,0,0,0,0c-0.3-0.3-0.7-0.5-1-0.7c-0.1-0.1-0.1-0.1-0.2-0.1
	c-0.3-0.2-0.5-0.4-0.8-0.5c-0.1-0.1-0.3-0.2-0.4-0.3c-0.2-0.1-0.3-0.2-0.5-0.3c-0.2-0.1-0.5-0.3-0.7-0.4c-0.1,0-0.1-0.1-0.2-0.1
	c-0.9-0.5-1.7-0.9-2.6-1.3c-0.1,0-0.1,0-0.2-0.1c-0.2-0.1-0.4-0.2-0.6-0.3c-0.2-0.1-0.4-0.2-0.6-0.2c0,0,0,0,0,0c0,0,0,0,0,0
	c0,0,0,0,0,0c-1.8,8.2,0.3,17.8,6.3,26c1.8,2.5,3.9,4.7,6.2,6.6c0.4-0.3,0.7-0.6,1-0.9C37.9,51,38.4,43.4,34.8,37.3z M31.8,56.5
	c-6-9.6-7.5-20.3-4.3-27.7c2.7,2.2,5.2,5,7.2,8.5C38.5,43.8,37.7,51.9,31.8,56.5z"/>
<path class="st6" d="M34.7,37.3c-2-3.5-4.5-6.3-7.2-8.5c-3.2,7.4-1.7,18.1,4.3,27.7C37.7,51.9,38.5,43.8,34.7,37.3z"/>
<path class="st7" d="M78.6,48.8c-4.6,7.4-13.1,11-21.3,9.8C65.5,59.8,74,56.2,78.6,48.8C89.9,30.3,89.7,13,86.3,5
	c-1.1-0.1-2.4-0.2-3.8-0.2c1.4,0,2.6,0.1,3.7,0.2C89.6,13.1,89.9,30.4,78.6,48.8z"/>
<path class="st0" d="M90.4,6.3c-0.7-0.6-2.2-1.1-4.1-1.4c-0.9-2.1-1.9-3.5-3.1-4.2c-4.6-2.9-29.8,1.9-41.1,25.6
	c-4.5,9.5-3.1,20.6,4.5,27.2c-7.2-7.7-7.1-19.5-0.9-28.5c3.3-4.8,7.2-8.6,11.2-11.5c0,0,0,0,0,0c0.3-0.2,0,0,0.3-0.2
	c4.8-3.8,9.7-5.8,13.7-6.7c4.3-1.3,8.3-1.9,11.6-1.9c1.4,0,2.7,0.1,3.8,0.2c3.4,8,3.6,25.4-7.7,43.8c-4.7,7.5-13.1,11.1-21.3,9.8
	c-2.7-0.4-5.4-1.4-7.9-2.9c-0.9-0.6-1.7-1.2-2.5-1.8c0.4,0.4,0.8,0.9,1.3,1.3c8.9,7.7,22.3,6.7,29.9-2.1
	C95.9,32.4,95.3,10.6,90.4,6.3z"/>
<path class="st2" d="M57.3,58.5c8.1,1.2,16.6-2.4,21.3-9.8C89.9,30.4,89.7,13.1,86.3,5c-1.1-0.1-2.4-0.2-3.8-0.2
	c-3.3,0-7.3,0.6-11.6,1.9c0.1,0,0.2,0,0.3-0.1C74,6,76.4,6,78,6.5c0.1,0,0.2,0.1,0.4,0.1c0.1,0,0.2,0.1,0.2,0.1
	c0.2,0.1,0.4,0.2,0.6,0.3c0.9,0.5,1.9,2.1,2.7,4.3c0,0,0,0,0,0c0.2,0.5,0.3,1,0.5,1.5c0.8,2.7,1.3,6.1,1.3,9.9c0,0,0,0,0,0
	c0,0.6,0,1.3-0.1,1.9c0,0.2,0,0.3,0,0.5c0,0.2,0,0.4,0,0.7c-0.1,0.8-0.2,1.7-0.3,2.6c0,0,0,0,0,0c0,0,0,0,0,0
	c-0.1,0.8-0.2,1.5-0.4,2.3c0,0.1,0,0.2-0.1,0.4c-0.2,0.8-0.4,1.6-0.6,2.4c0,0.1-0.1,0.2-0.1,0.3c-0.1,0.3-0.2,0.7-0.3,1
	c0,0.1-0.1,0.2-0.1,0.3c0,0,0,0,0,0c-0.5,1.5-1.1,3-1.8,4.5c0,0,0,0,0,0c0,0,0,0,0,0c-0.2,0.4-0.4,0.8-0.6,1.2
	c0,0.1-0.1,0.2-0.1,0.3c-0.2,0.4-0.5,0.8-0.7,1.3c0,0.1-0.1,0.2-0.1,0.2c-0.2,0.3-0.3,0.6-0.5,0.9c-0.1,0.2-0.3,0.4-0.4,0.6
	c0,0.1-0.1,0.1-0.1,0.2c0,0,0,0,0,0c-0.1,0.2-0.2,0.3-0.3,0.5c-0.2,0.3-0.4,0.6-0.6,0.9c-0.1,0.1-0.1,0.2-0.2,0.3c0,0,0,0-0.1,0.1
	c-0.1,0.1-0.1,0.1-0.2,0.2c-0.3,0.5-0.7,0.9-1.1,1.4c0,0,0,0,0,0c-0.3,0.4-0.6,0.7-0.9,1.1c-0.1,0.1-0.1,0.2-0.2,0.2
	c0,0-0.1,0.1-0.1,0.1c-0.1,0.1-0.1,0.1-0.2,0.2c0,0-0.1,0.1-0.1,0.1c-0.1,0.1-0.1,0.1-0.2,0.2c-0.1,0.1-0.1,0.1-0.2,0.2
	c-0.2,0.2-0.3,0.3-0.5,0.5c0,0,0,0-0.1,0c0,0-0.1,0.1-0.1,0.1c0,0,0,0-0.1,0c-0.1,0.1-0.3,0.3-0.5,0.4c-0.2,0.2-0.5,0.4-0.7,0.6
	c0,0,0,0,0,0c0,0-0.1,0.1-0.1,0.1c-0.1,0-0.1,0.1-0.2,0.1c-0.3,0.2-0.6,0.4-0.9,0.6c-0.1,0.1-0.2,0.1-0.3,0.2c0,0,0,0,0,0
	c-4.9,3.1-10.8,4.1-16.2,2.1c-0.1,0-0.2-0.1-0.3-0.1c-0.3-0.1-0.6-0.2-0.9-0.4c-0.3-0.1-0.6-0.3-0.9-0.4c0,0,0,0,0,0c0,0,0,0,0,0
	c-0.1-0.1-0.3-0.2-0.4-0.3c-0.2-0.1-0.4-0.2-0.6-0.3c0,0,0,0,0,0c0,0-0.1,0-0.1-0.1c0-0.1,0-0.2,0-0.3c-0.2-0.3-0.3-0.6-0.4-0.9
	c-2.4-11.7-0.5-25.5,6.5-37.1c0.2-0.3,0.4-0.7,0.6-1c0,0,0.1-0.1,0.1-0.1c-4,2.9-7.9,6.7-11.2,11.5c-6.2,9-6.3,20.8,0.9,28.5
	c0,0,0,0,0,0c0.1,0.1,0.2,0.2,0.3,0.3c0.8,0.6,1.6,1.2,2.5,1.8C51.9,57.2,54.6,58.1,57.3,58.5z"/>
<path class="st3" d="M56.2,14.7c-6.9,11.6-8.9,25.4-6.5,37.1c0.1,0.3,0.2,0.6,0.4,0.9c0.3-7.8,2.6-15.5,7.1-22.5
	c5.9-9.4,14.8-15.8,24.7-18.9c-0.8-2.2-1.8-3.8-2.7-4.3c-0.2-0.1-0.4-0.2-0.6-0.3c-0.1,0-0.2-0.1-0.2-0.1c-0.1,0-0.2-0.1-0.4-0.1
	c-1.6-0.5-4-0.5-6.8,0c-0.1,0-0.2,0-0.3,0.1c-4,0.9-8.9,2.9-13.7,6.7c-0.3,0.2,0,0-0.3,0.2c0,0,0,0,0,0c0,0-0.1,0.1-0.1,0.1
	C56.6,14,56.4,14.4,56.2,14.7z"/>
<path class="st8" d="M82.5,32.2c-0.1,0.4-0.2,0.9-0.3,1.3c0.2-0.8,0.4-1.6,0.6-2.4c0,0.2-0.1,0.3-0.1,0.5
	C82.6,31.8,82.5,32,82.5,32.2z"/>
<path class="st8" d="M82.8,30.7c0.2-0.8,0.3-1.5,0.4-2.3c-0.1,0.6-0.2,1.3-0.3,2C82.9,30.5,82.9,30.6,82.8,30.7z"/>
<path class="st8" d="M83.5,25.8c-0.1,0.8-0.2,1.7-0.3,2.6C83.4,27.5,83.5,26.7,83.5,25.8z"/>
<path class="st8" d="M50.8,53.5c0.1,0.1,0.3,0.2,0.4,0.3c0,0,0,0,0,0c0,0,0,0,0,0c0.3,0.1,0.6,0.3,0.9,0.4c0.3,0.1,0.6,0.3,0.9,0.4
	c0.1,0,0.2,0.1,0.3,0.1c5.4,2,11.3,1,16.2-2.1c0,0,0,0,0,0c0.1-0.1,0.2-0.1,0.3-0.2c-1,0.7-2.1,1.3-3.2,1.7
	C61.5,56.3,55.9,56.3,50.8,53.5z"/>
<path class="st8" d="M70.6,51.8c0.1,0,0.1-0.1,0.2-0.1c0,0,0.1-0.1,0.1-0.1c0,0,0,0,0,0C70.8,51.6,70.7,51.7,70.6,51.8z"/>
<path class="st8" d="M71.6,50.9c0.2-0.1,0.3-0.2,0.5-0.4c0,0,0,0,0.1,0C72,50.7,71.8,50.8,71.6,50.9z"/>
<path class="st8" d="M83.7,22.8c0-3.8-0.5-7.2-1.3-9.9C83.1,15.5,83.7,18.9,83.7,22.8C83.7,22.8,83.7,22.8,83.7,22.8z"/>
<path class="st9" d="M74.8,47.8C74.8,47.8,74.8,47.8,74.8,47.8c0.4-0.5,0.7-0.9,1.1-1.4C75.5,46.8,75.2,47.3,74.8,47.8
	C74.8,47.8,74.8,47.8,74.8,47.8z"/>
<path class="st9" d="M73.1,49.7c0.1-0.1,0.1-0.1,0.2-0.2c0,0,0.1-0.1,0.1-0.1c0.1-0.1,0.1-0.1,0.2-0.2c0,0,0.1-0.1,0.1-0.1
	c0.1-0.1,0.1-0.2,0.2-0.2C73.6,49.1,73.3,49.4,73.1,49.7z"/>
<path class="st9" d="M66.5,54.1c1.1-0.5,2.2-1.1,3.2-1.7c0.3-0.2,0.6-0.4,0.9-0.6c0.1-0.1,0.2-0.2,0.3-0.2c0.2-0.2,0.5-0.4,0.7-0.6
	c0.2-0.1,0.3-0.3,0.5-0.4c0,0,0.1-0.1,0.1-0.1c0,0,0,0,0.1,0c0.2-0.2,0.4-0.3,0.5-0.5C71,51.7,68.8,53.1,66.5,54.1z"/>
<path class="st9" d="M82.6,31.6c0-0.2,0.1-0.3,0.1-0.5c0-0.1,0-0.2,0.1-0.4c0-0.1,0-0.2,0.1-0.3C82.8,30.8,82.7,31.2,82.6,31.6z"/>
<path class="st9" d="M81.6,35.2C81.6,35.2,81.7,35.2,81.6,35.2C81.7,35.2,81.7,35.2,81.6,35.2c0.1-0.1,0.1-0.2,0.1-0.3
	c0.1-0.3,0.2-0.7,0.3-1c0-0.1,0.1-0.2,0.1-0.3c0.1-0.5,0.2-0.9,0.3-1.3C82.2,33.2,82,34.2,81.6,35.2z"/>
<path class="st4" d="M57.2,30.3c-4.4,7-6.7,14.7-7.1,22.5c0,0.1,0,0.2,0,0.3c0,0,0.1,0,0.1,0.1c0,0,0,0,0,0c0,0,0,0-0.1,0
	c0,0,0-0.1,0-0.1c1.2-3.5,2.8-7,5-10.4c7-11,17.7-18,28.5-19.8c0-3.8-0.5-7.2-1.3-9.9c-0.1-0.5-0.3-1-0.5-1.5c0,0,0,0,0,0
	C72,14.5,63.1,20.9,57.2,30.3z"/>
<path class="st5" d="M55.2,42.6c-2.2,3.4-3.8,6.9-5,10.4c0,0,0,0.1,0,0.1c0,0,0,0,0.1,0c0,0,0,0,0.1-0.1
	c8.8-11.7,20.9-18.3,31.3-17.9c0.3-1,0.6-2,0.9-3c0.1-0.2,0.1-0.4,0.2-0.6c0.1-0.4,0.2-0.8,0.2-1.2c0.1-0.7,0.3-1.3,0.3-2
	c0,0,0,0,0,0c0,0,0,0,0,0c0.1-0.9,0.2-1.7,0.3-2.6c0-0.2,0-0.4,0-0.7c0-0.2,0-0.3,0-0.5c0-0.6,0.1-1.3,0.1-1.9c0,0,0,0,0,0
	c0,0,0,0,0,0C72.9,24.6,62.2,31.6,55.2,42.6z"/>
<path class="st6" d="M81.6,35.2C71.2,34.7,59.1,41.3,50.3,53c0,0,0,0-0.1,0.1c0,0,0,0,0,0c0,0,0,0,0,0c0.2,0.1,0.4,0.2,0.6,0.3
	c5,2.8,10.7,2.8,15.7,0.6c2.3-1,4.5-2.4,6.4-4.3c0.1-0.1,0.1-0.1,0.2-0.2c0.3-0.3,0.5-0.5,0.8-0.8c0.3-0.4,0.6-0.7,0.9-1.1
	c0,0,0,0,0,0c0.4-0.5,0.7-0.9,1.1-1.4c0.1-0.1,0.1-0.1,0.2-0.2c0,0,0,0,0.1-0.1c0.1-0.1,0.1-0.2,0.2-0.3c0.2-0.3,0.4-0.6,0.6-0.9
	c0.1-0.2,0.2-0.3,0.3-0.5c0,0,0,0,0,0c0-0.1,0.1-0.1,0.1-0.2c0.1-0.2,0.3-0.4,0.4-0.6c0.2-0.3,0.4-0.6,0.5-0.9
	c0-0.1,0.1-0.2,0.1-0.2c0.2-0.4,0.5-0.8,0.7-1.3c0-0.1,0.1-0.2,0.1-0.3c0.2-0.4,0.4-0.8,0.6-1.2c0,0,0,0,0,0c0,0,0,0,0,0
	C80.6,38.2,81.2,36.7,81.6,35.2C81.7,35.2,81.7,35.2,81.6,35.2C81.7,35.2,81.7,35.2,81.6,35.2C81.7,35.2,81.6,35.2,81.6,35.2z"/>
<g>
	<g>
		<path class="st10" d="M131.2,65.3c-0.7-0.4-1.2-0.9-1.6-1.5c-0.3-0.6-0.5-1.4-0.5-2.3c0-3.3,0-6.3,0.1-9.1c0.1-2.8,0.1-6,0.1-9.6
			c0-2.5-0.3-4.6-1-6.2c-0.7-1.6-1.6-2.9-2.9-3.8c-1.3-1-2.7-1.6-4.3-1.9c-1.6-0.3-3.4-0.4-5.5-0.4c-1.5,0-3.1,0.2-4.7,0.7
			c-1.6,0.5-3,1.1-4.1,1.8c-1.3,0.8-2.4,1.8-3.2,2.8c-0.8,1.1-1.2,2.2-1.2,3.3s0.3,2.1,0.9,3s1.5,1.3,2.8,1.3c1.4,0,2.5-0.4,3.3-1.1
			c0.8-0.7,1.2-1.5,1.2-2.4c0-0.8-0.1-1.7-0.4-2.7c-0.2-1-0.4-1.7-0.4-2.2c0.4-0.4,1.1-0.8,2.1-1.2c1-0.4,2.1-0.6,3.2-0.6
			c1.7,0,3,0.3,3.9,1c0.9,0.7,1.6,1.5,2.1,2.4c0.5,0.8,0.7,1.7,0.9,2.6c0.1,0.9,0.2,1.6,0.2,1.9v3.7c-1.2,0.7-3.5,1.6-7,2.7
			c-3.5,1.2-5.8,2-6.9,2.4c-0.9,0.4-1.9,0.8-2.9,1.4s-1.9,1.3-2.5,2c-0.8,0.9-1.4,1.9-1.8,3.1c-0.4,1.1-0.6,2.4-0.6,3.9
			c0,2.8,0.9,5,2.7,6.7c1.8,1.7,4.1,2.6,6.9,2.6c2.6,0,4.9-0.5,6.8-1.4c1.9-1,3.6-2.3,5.3-4.2h0.2c0.3,1.8,1.1,3.1,2.2,4
			c1.2,0.9,2.7,1.4,4.7,1.4c1.1,0,2.1-0.1,3-0.4c0.9-0.3,1.9-0.6,3.1-1v-2.3c-0.9,0-1.6,0-2.4,0C132.2,65.7,131.6,65.5,131.2,65.3z
			 M122.1,61.2c-0.9,1.2-2.1,2.2-3.4,3.1c-1.4,0.9-2.9,1.3-4.7,1.3c-1.7,0-3.1-0.5-4.2-1.5s-1.6-2.5-1.6-4.6c0-1.6,0.4-3,1.1-4.2
			s1.7-2.2,3-3c1.4-0.9,2.9-1.7,4.5-2.3c1.6-0.6,3.5-1.2,5.6-1.9L122.1,61.2z"/>
		<path class="st10" d="M235.6,65c-1.4,0-2.4-0.2-3.2-0.6c-0.8-0.4-1.4-0.9-1.8-1.7c-0.4-0.8-0.7-1.7-0.8-2.7s-0.2-2.3-0.2-3.9V35.3
			h10.6v-3.6h-10.7V20.1h-6.9v11.6h-6.9v3.6h6.7v25.2c0,2.9,0.6,5.1,1.9,6.7c1.3,1.6,3.5,2.4,6.6,2.4c2.1,0,3.9-0.2,5.4-0.7
			s3-1,4.6-1.7v-2.8c-0.5,0.2-1.4,0.3-2.5,0.4C237.2,64.9,236.3,65,235.6,65z"/>
		<path class="st10" d="M178.4,66.1c-0.4-0.1-1-0.3-1.6-0.5c-0.7-0.3-1.2-0.7-1.5-1.3c-0.3-0.5-0.5-1.2-0.5-2.1V42.8
			c0-3.7-0.9-6.7-2.6-8.9c-1.7-2.2-4.4-3.3-7.9-3.3c-1.6,0-3.1,0.2-4.3,0.6c-1.3,0.4-2.4,0.9-3.3,1.5c-0.8,0.5-1.7,1.2-2.6,2.1
			c-0.9,0.8-1.7,1.6-2.3,2.2h-0.2v-5.3l-0.5-0.5l-12.4,0.7v2.5c0.8,0,1.5,0.1,2.1,0.3c0.7,0.1,1.2,0.4,1.7,0.7
			c0.7,0.5,1.2,1,1.5,1.8c0.4,0.7,0.5,1.5,0.5,2.4v23c0,0.9-0.2,1.6-0.5,2.2c-0.3,0.6-0.9,1-1.6,1.2c-0.5,0.2-1,0.3-1.6,0.3
			c-0.6,0.1-1.2,0.1-1.8,0.2V69h18.2v-2.5c-0.7-0.1-1.3-0.1-1.9-0.3c-0.6-0.1-1.2-0.3-1.7-0.6c-0.7-0.3-1.2-0.7-1.6-1.3
			c-0.4-0.6-0.5-1.3-0.5-2.1V40.6c0.2-0.4,0.6-0.9,1.1-1.6c0.5-0.7,1.2-1.3,2-1.9c0.9-0.6,1.8-1.1,3-1.5c1.1-0.4,2.3-0.6,3.7-0.6
			c1.8,0,3.3,0.7,4.6,2.2c1.2,1.4,1.9,3.5,1.9,6.1v19.1c0,0.9-0.2,1.6-0.5,2.2s-0.9,1-1.6,1.2c-0.5,0.2-1,0.3-1.7,0.3
			c-0.7,0.1-1.3,0.1-1.9,0.2v2.5h18.2v-2.5h-0.1C179.4,66.2,178.8,66.2,178.4,66.1z"/>
		<path class="st10" d="M209,50.4c-0.9-0.7-2.1-1.5-3.5-2.2c-1.5-0.7-3-1.3-4.7-1.9c-1.7-0.6-3.1-1.1-4.2-1.5
			c-1.1-0.4-2.1-0.9-2.9-1.4c-0.8-0.5-1.4-1.2-1.8-1.9c-0.4-0.8-0.6-1.7-0.6-2.8c0-1.5,0.6-2.7,1.8-3.8c1.2-1,2.8-1.6,4.9-1.6
			c2.5,0,4.6,0.8,6.4,2.5c1.7,1.7,2.9,3.9,3.4,6.5h2.6l-0.6-12h-2.7l-0.9,2c-1-0.5-2.2-1-3.7-1.4c-1.5-0.4-3-0.6-4.5-0.6
			c-3.8,0-6.8,1.1-9.1,3.2c-2.3,2.1-3.4,4.7-3.4,7.7c0,1.7,0.4,3.2,1.1,4.5c0.7,1.3,1.6,2.4,2.7,3.2c1,0.8,2.3,1.6,3.7,2.2
			c1.4,0.6,2.8,1.1,3.9,1.5c1.5,0.5,2.8,0.9,4,1.4c1.2,0.5,2.2,1,3.1,1.6c0.8,0.6,1.4,1.2,1.8,2s0.6,1.7,0.6,2.7
			c0,2.1-0.7,3.6-2,4.7c-1.3,1.1-3.2,1.7-5.6,1.7c-1.7,0-3.3-0.4-4.6-1.1c-1.4-0.8-2.5-1.7-3.5-2.8c-0.9-1.1-1.7-2.2-2.4-3.6
			c-0.7-1.3-1.1-2.5-1.3-3.4h-2.6l0.4,13h2.8l0.8-2.5c0.8,0.7,2.1,1.4,3.9,2.1c1.8,0.8,3.8,1.2,6,1.2c4.1,0,7.4-1.1,10-3.3
			c2.6-2.2,3.9-5,3.9-8.5c0-1.7-0.3-3.2-0.8-4.3C210.8,52.3,210.1,51.3,209,50.4z"/>
		<path class="st10" d="M342,53.5c-0.6-1.2-1.3-2.2-2.4-3.1c-0.8-0.7-2.1-1.5-3.5-2.2c-1.5-0.7-3-1.3-4.7-1.9
			c-1.7-0.6-3.1-1.1-4.2-1.5c-1.1-0.4-2.1-0.9-2.9-1.4s-1.4-1.2-1.8-1.9c-0.4-0.8-0.6-1.7-0.6-2.8c0-1.5,0.6-2.7,1.8-3.8
			c1.2-1,2.8-1.6,4.9-1.6c2.5,0,4.7,0.8,6.4,2.5c1.8,1.7,2.9,3.9,3.4,6.5h2.6l-0.6-12h-2.7l-0.9,2c-1-0.5-2.2-1-3.7-1.4
			c-1.5-0.4-3-0.6-4.5-0.6c-3.8,0-6.8,1.1-9.1,3.2c-2.3,2.1-3.4,4.7-3.4,7.7c0,1.7,0.4,3.2,1.1,4.5c0.7,1.3,1.6,2.4,2.7,3.2
			c1,0.8,2.3,1.6,3.7,2.2c1.4,0.6,2.8,1.1,3.9,1.5c1.5,0.5,2.8,0.9,4,1.4s2.2,1,3.1,1.6c0.8,0.6,1.4,1.2,1.8,2
			c0.4,0.8,0.6,1.7,0.6,2.7c0,2.1-0.7,3.6-2,4.7c-1.3,1.1-3.2,1.7-5.6,1.7c-1.7,0-3.3-0.4-4.6-1.1c-1.4-0.8-2.5-1.7-3.5-2.8
			c-0.9-1.1-1.7-2.2-2.4-3.6c-0.7-1.3-1.1-2.5-1.3-3.4H315l0.4,13h2.8l0.8-2.5c0.8,0.7,2.1,1.4,3.9,2.1c1.8,0.8,3.8,1.2,6,1.2
			c4.1,0,7.4-1.1,10-3.3c2.6-2.2,3.9-5,3.9-8.5C342.8,56.1,342.5,54.6,342,53.5z"/>
		<path class="st10" d="M315.9,31.6h-13.8V34c1,0.1,2.1,0.5,3.3,1c1.1,0.6,1.7,1.2,1.7,1.8s-0.2,1.3-0.5,2.2c-0.3,0.8-0.6,1.5-0.8,2
			c-1.5,3.9-2.9,7.3-4.1,10.2c-1.2,2.9-2.4,5.7-3.5,8.4c-1.1-2.8-2.6-6.6-4.6-11.3s-3.4-8.3-4.4-10.8c-0.1-0.4-0.3-0.7-0.4-1.1
			c-0.1-0.4-0.2-0.6-0.2-0.8c0-0.4,0.5-0.7,1.6-1c1.1-0.3,2-0.4,2.7-0.5v-2.6h-17V34c1.1,0.2,2.3,0.6,3.4,1.2
			c1.1,0.6,1.9,1.5,2.4,2.7c2.1,5,4.1,9.9,6.1,14.6c1.9,4.7,4.1,10,6.5,16c-0.8,2.2-2,4.7-3.8,7.5c-1.7,2.9-3.3,4.6-4.5,5.3
			c-0.3-0.4-0.6-1-1-1.6c-0.4-0.6-0.8-1.2-1.2-1.5c-0.5-0.5-1-0.9-1.5-1.2c-0.6-0.3-1.3-0.4-2.1-0.4c-1,0-1.9,0.4-2.6,1.2
			c-0.7,0.8-1,1.8-1,3.1c0,1.2,0.6,2.3,1.7,3.2c1.1,0.9,2.7,1.4,4.6,1.4c1,0,2-0.2,2.9-0.5c0.9-0.4,2-1.1,3.2-2.1
			c1.2-1.1,2.4-2.7,3.6-4.7s2.7-4.7,4.2-8.2c1.2-2.7,3-6.9,5.3-12.6c2.3-5.7,5-12,8-19c0.6-1.4,1.5-2.4,2.8-3.2
			c1.2-0.7,2.2-1.2,3-1.3V31.6z"/>
		<path class="st10" d="M240.9,64.4L240.9,64.4c0,0,0.1,0,0.1,0H240.9z"/>
		<path class="st10" d="M268.5,64.1c-1.6,1-3.6,1.6-5.8,1.6c-2.2,0-4.1-0.4-5.7-1.3c-1.6-0.8-2.9-2-3.9-3.5s-1.7-3.3-2.2-5.3
			s-0.7-4.2-0.7-6.7h24.7v-2.5c0-2.2-0.3-4.3-0.9-6.2c-0.6-1.9-1.4-3.6-2.6-5c-1.2-1.5-2.8-2.7-4.7-3.5c-1.9-0.9-4.3-1.3-7-1.3
			c-2.6,0-5,0.5-7.2,1.6c-2.1,1.1-3.9,2.5-5.3,4.3c-1.5,1.9-2.6,4-3.4,6.3s-1.2,4.7-1.2,7.1c0,2.7,0.4,5.2,1.1,7.7
			c0.7,2.4,1.8,4.5,3.3,6.3c1.5,1.8,3.3,3.2,5.6,4.3c2.3,1.1,4.9,1.6,7.9,1.6c3.4,0,6.4-0.9,9-2.6c2.6-1.8,4.7-4.1,6.3-7.1l-2.6-1.5
			C271.7,61.1,270.1,63,268.5,64.1z M253.2,36.6c1.8-2.2,3.9-3.3,6.6-3.3c1.6,0,2.9,0.4,3.9,1.1c1,0.7,1.8,1.7,2.4,2.8
			c0.5,1.1,0.9,2.4,1.2,4c0.2,1.6,0.4,3.1,0.4,4.5h-17.4C250.6,41.8,251.5,38.7,253.2,36.6z"/>
	</g>
	<g>
		<path class="st10" d="M190.9,79.9c0-1.4-0.7-1.8-1.8-1.8c-1,0-1.8,0.6-2.3,1.2v6.2h-1.9V73.1h1.9v4.6c0.6-0.7,1.8-1.4,3.2-1.4
			c1.9,0,2.9,1,2.9,2.8v6.3h-1.9V79.9z"/>
		<path class="st10" d="M199.3,76.3c2.7,0,4.4,2.1,4.4,4.9v0.5h-6.9c0.1,1.4,1.2,2.5,2.9,2.5c0.9,0,1.9-0.4,2.5-1l0.9,1.3
			c-0.9,0.9-2.2,1.3-3.6,1.3c-2.7,0-4.7-1.9-4.7-4.7C194.8,78.4,196.7,76.3,199.3,76.3z M196.8,80.3h5c0-1.1-0.8-2.4-2.5-2.4
			C197.7,77.9,196.9,79.2,196.8,80.3z"/>
		<path class="st10" d="M211.1,84.5c-0.7,0.8-1.7,1.2-2.9,1.2c-1.5,0-3.1-1-3.1-3c0-2.1,1.6-2.9,3.1-2.9c1.2,0,2.2,0.4,2.9,1.2v-1.3
			c0-1-0.9-1.7-2.1-1.7c-1,0-1.9,0.4-2.7,1.1l-0.8-1.4c1-1,2.3-1.4,3.8-1.4c2,0,3.7,0.8,3.7,3.2v5.9h-1.9V84.5z M211.1,82.1
			c-0.4-0.6-1.3-0.9-2.1-0.9c-1.1,0-1.9,0.6-1.9,1.6c0,1,0.8,1.6,1.9,1.6c0.9,0,1.7-0.3,2.1-0.9V82.1z"/>
		<path class="st10" d="M215.6,73.1h1.9v12.4h-1.9V73.1z"/>
		<path class="st10" d="M220.5,83.4v-5.2H219v-1.7h1.5v-2.4h1.9v2.4h1.8v1.7h-1.8v4.7c0,0.6,0.3,1.1,0.9,1.1c0.4,0,0.7-0.1,0.9-0.3
			l0.5,1.5c-0.4,0.3-0.9,0.6-1.8,0.6C221.3,85.7,220.5,84.9,220.5,83.4z"/>
		<path class="st10" d="M232.1,79.9c0-1.4-0.7-1.8-1.8-1.8c-1,0-1.8,0.6-2.3,1.2v6.2H226V73.1h1.9v4.6c0.6-0.7,1.8-1.4,3.2-1.4
			c1.9,0,2.9,1,2.9,2.8v6.3h-1.9V79.9z"/>
		<path class="st10" d="M240.6,76.3c1.7,0,2.8,0.7,3.4,1.6l-1.3,1.2c-0.5-0.7-1.2-1.1-2.1-1.1c-1.6,0-2.7,1.2-2.7,3
			c0,1.7,1.1,3,2.7,3c0.9,0,1.6-0.4,2.1-1.1l1.3,1.2c-0.6,0.9-1.7,1.6-3.4,1.6c-2.7,0-4.6-2-4.6-4.7C236,78.3,237.9,76.3,240.6,76.3
			z"/>
		<path class="st10" d="M251.2,84.5c-0.7,0.8-1.7,1.2-2.9,1.2c-1.5,0-3.1-1-3.1-3c0-2.1,1.6-2.9,3.1-2.9c1.2,0,2.2,0.4,2.9,1.2v-1.3
			c0-1-0.9-1.7-2.1-1.7c-1,0-1.9,0.4-2.7,1.1l-0.8-1.4c1-1,2.3-1.4,3.8-1.4c2,0,3.7,0.8,3.7,3.2v5.9h-1.9V84.5z M251.2,82.1
			c-0.4-0.6-1.3-0.9-2.1-0.9c-1.1,0-1.9,0.6-1.9,1.6c0,1,0.8,1.6,1.9,1.6c0.9,0,1.7-0.3,2.1-0.9V82.1z"/>
		<path class="st10" d="M255.7,76.5h1.9v1.3c0.7-0.9,1.7-1.5,2.9-1.5v1.9c-0.2,0-0.4-0.1-0.6-0.1c-0.8,0-1.9,0.6-2.3,1.2v6.1h-1.9
			V76.5z"/>
		<path class="st10" d="M266.1,76.3c2.7,0,4.4,2.1,4.4,4.9v0.5h-6.9c0.1,1.4,1.2,2.5,2.9,2.5c0.9,0,1.9-0.4,2.5-1l0.9,1.3
			c-0.9,0.9-2.2,1.3-3.6,1.3c-2.7,0-4.7-1.9-4.7-4.7C261.6,78.4,263.5,76.3,266.1,76.3z M263.6,80.3h5c0-1.1-0.8-2.4-2.5-2.4
			C264.4,77.9,263.7,79.2,263.6,80.3z"/>
	</g>
</g>
</svg>
